<?xml version="1.0" encoding="iso-8859-1"?>
<!-- Generator: Adobe Illustrator 19.0.0, SVG Export Plug-In . SVG Version: 6.00 Build 0)  -->
<svg version="1.1" id="Layer_1" xmlns="http://www.w3.org/2000/svg" xmlns:xlink="http://www.w3.org/1999/xlink" x="0px" y="0px"
	 viewBox="0 0 512 512" style="enable-background:new 0 0 512 512;" xml:space="preserve">
<g>
	<g>
		<g>
			<path d="M85.333,46.321V21.333C85.333,9.551,75.782,0,64,0C52.218,0,42.667,9.551,42.667,21.333v24.987
				C17.808,55.105,0,78.794,0,106.667v64c0,27.872,17.808,51.562,42.667,60.346v259.654C42.667,502.449,52.218,512,64,512
				c11.782,0,21.333-9.551,21.333-21.333V231.013C110.192,222.228,128,198.539,128,170.667v-64
				C128,78.794,110.192,55.105,85.333,46.321z M85.333,170.667C85.333,182.458,75.791,192,64,192s-21.333-9.542-21.333-21.333v-64
				c0-11.791,9.542-21.333,21.333-21.333s21.333,9.542,21.333,21.333V170.667z"/>
			<path d="M277.333,110.321V21.333C277.333,9.551,267.782,0,256,0c-11.782,0-21.333,9.551-21.333,21.333v88.987
				C209.808,119.105,192,142.794,192,170.667v64c0,27.872,17.808,51.562,42.667,60.346v195.654c0,11.782,9.551,21.333,21.333,21.333
				c11.782,0,21.333-9.551,21.333-21.333V295.013C302.192,286.228,320,262.539,320,234.667v-64
				C320,142.794,302.192,119.105,277.333,110.321z M277.333,234.667c0,11.791-9.542,21.333-21.333,21.333
				s-21.333-9.542-21.333-21.333v-64c0-11.791,9.542-21.333,21.333-21.333s21.333,9.542,21.333,21.333V234.667z"/>
			<path d="M469.333,280.987V21.333C469.333,9.551,459.782,0,448,0c-11.782,0-21.333,9.551-21.333,21.333v259.654
				C401.808,289.772,384,313.461,384,341.333v64c0,27.872,17.808,51.562,42.667,60.346v24.987c0,11.782,9.551,21.333,21.333,21.333
				c11.782,0,21.333-9.551,21.333-21.333v-24.987C494.192,456.895,512,433.206,512,405.333v-64
				C512,313.461,494.192,289.772,469.333,280.987z M469.333,405.333c0,11.791-9.542,21.333-21.333,21.333
				s-21.333-9.542-21.333-21.333v-64c0-11.791,9.542-21.333,21.333-21.333s21.333,9.542,21.333,21.333V405.333z"/>
		</g>
	</g>
</g>
<g>
</g>
<g>
</g>
<g>
</g>
<g>
</g>
<g>
</g>
<g>
</g>
<g>
</g>
<g>
</g>
<g>
</g>
<g>
</g>
<g>
</g>
<g>
</g>
<g>
</g>
<g>
</g>
<g>
</g>
</svg>
