<svg
   xmlns:dc="http://purl.org/dc/elements/1.1/"
   xmlns:cc="http://creativecommons.org/ns#"
   xmlns:rdf="http://www.w3.org/1999/02/22-rdf-syntax-ns#"
   xmlns:svg="http://www.w3.org/2000/svg"
   xmlns="http://www.w3.org/2000/svg"
   xmlns:sodipodi="http://sodipodi.sourceforge.net/DTD/sodipodi-0.dtd"
   xmlns:inkscape="http://www.inkscape.org/namespaces/inkscape"
   version="1.1"
   id="Capa_1"
   x="0px"
   y="0px"
   viewBox="0 0 364.00602 483.53101"
   xml:space="preserve"
   sodipodi:docname="mover-svgrepo-com.svg"
   inkscape:version="0.92.5 (2060ec1f9f, 2020-04-08)"
   width="364.00601"
   height="483.53101"><metadata
   id="metadata253"><rdf:RDF><cc:Work
       rdf:about=""><dc:format>image/svg+xml</dc:format><dc:type
         rdf:resource="http://purl.org/dc/dcmitype/StillImage" /><dc:title></dc:title></cc:Work></rdf:RDF></metadata><defs
   id="defs251" /><sodipodi:namedview
   pagecolor="#ffffff"
   bordercolor="#666666"
   borderopacity="1"
   objecttolerance="10"
   gridtolerance="10"
   guidetolerance="10"
   inkscape:pageopacity="0"
   inkscape:pageshadow="2"
   inkscape:window-width="1920"
   inkscape:window-height="1023"
   id="namedview249"
   showgrid="false"
   inkscape:zoom="0.48759525"
   inkscape:cx="-554.7634"
   inkscape:cy="241.766"
   inkscape:window-x="0"
   inkscape:window-y="0"
   inkscape:window-maximized="1"
   inkscape:current-layer="Capa_1"
   fit-margin-top="0"
   fit-margin-left="0"
   fit-margin-right="0"
   fit-margin-bottom="0" />
<g
   id="XMLID_140_"
   transform="translate(0,-0.239)">
	
	<path
   id="XMLID_144_"
   d="m 74.287,227.529 c -9.263,-1.608 -16.369,-8.373 -18.873,-16.828 l -20.469,-69.419 31.337,64.11 c 2.835,5.815 8.305,9.911 14.669,11.013 l 74.617,12.952 c 1.168,0.204 2.33,0.3 3.48,0.3 9.611,0 18.138,-6.909 19.839,-16.717 1.906,-10.974 -5.452,-21.421 -16.417,-23.318 L 97.996,178.426 71.184,123.573 98.531,161.67 v -0.117 C 98.531,129.554 72.597,103.62 40.601,103.62 18.18,103.62 0,121.802 0,144.221 l 0.185,315.348 c 0,13.368 10.841,24.201 24.202,24.201 13.361,0 24.201,-10.833 24.201,-24.201 v -144.22 h 16.136 v 144.219 c 0,6.98 -1.941,13.439 -5.045,19.159 4.068,3.119 9.107,5.042 14.621,5.042 13.361,0 24.199,-10.833 24.199,-24.201 L 98.53,231.744 78.883,228.332 Z"
   inkscape:connector-curvature="0" />
	<path
   id="XMLID_143_"
   d="m 49.247,94.542 c 26.048,0 47.157,-21.104 47.157,-47.147 0,-26.053 -21.109,-47.156 -47.157,-47.156 -26.058,0 -47.155,21.103 -47.155,47.156 0,26.044 21.097,47.147 47.155,47.147 z"
   inkscape:connector-curvature="0" />
	<path
   id="XMLID_142_"
   d="m 323.406,103.62 c -31.996,0 -57.929,25.933 -57.929,57.933 v 1.174 l 23.218,-30.699 -22.686,46.397 -64.473,11.196 c -10.965,1.896 -18.322,12.344 -16.417,23.318 1.701,9.808 10.228,16.717 19.839,16.717 1.15,0 2.312,-0.096 3.48,-0.3 l 74.617,-12.952 c 6.364,-1.102 11.834,-5.198 14.669,-11.013 l 27.197,-55.649 -16.329,60.958 c -2.389,8.943 -9.718,15.237 -18.273,16.732 l -5.195,0.899 -19.648,3.412 0.029,227.824 c 0,13.368 10.839,24.201 24.201,24.201 5.513,0 10.552,-1.923 14.62,-5.042 -3.104,-5.719 -5.045,-12.179 -5.045,-19.159 V 315.349 h 16.137 v 144.219 c 0,13.368 10.839,24.201 24.201,24.201 13.361,0 24.201,-10.833 24.201,-24.201 l 0.186,-205.87 V 144.221 c 0.002,-22.419 -18.178,-40.601 -40.6,-40.601 z"
   inkscape:connector-curvature="0" />
	<path
   id="XMLID_141_"
   d="m 314.76,94.542 c 26.059,0 47.157,-21.104 47.157,-47.147 0,-26.053 -21.099,-47.156 -47.157,-47.156 -26.047,0 -47.155,21.103 -47.155,47.156 -0.001,26.044 21.108,47.147 47.155,47.147 z"
   inkscape:connector-curvature="0" />
</g></svg>