<?xml version="1.0" encoding="iso-8859-1"?>
<!-- Generator: Adobe Illustrator 19.0.0, SVG Export Plug-In . SVG Version: 6.00 Build 0)  -->
<svg version="1.1" id="Layer_1" xmlns="http://www.w3.org/2000/svg" xmlns:xlink="http://www.w3.org/1999/xlink" x="0px" y="0px"
	 viewBox="0 0 457.729 457.729" style="enable-background:new 0 0 457.729 457.729;" xml:space="preserve">
<g>
	<polygon points="138.009,216.05 69.477,234.414 50.76,164.562 0,252.871 11.673,273.044 105.249,273.044 	"/>
	<polygon points="274.8,353.39 181.185,259.775 180.574,259.775 180.574,303.044 29.031,303.044 87.647,404.347 180.574,404.347 
		180.574,447.616 	"/>
	<polygon points="279.467,150.116 298.809,77.929 365.017,95.669 315.047,10.113 291.752,10.113 245.27,90.623 	"/>
	<polygon points="218.57,163.406 218.875,162.877 181.404,141.242 257.175,10.113 140.137,10.113 93.672,90.591 56.201,68.956 
		90.69,197.671 	"/>
	<polygon points="266.881,303.044 317.226,353.39 266.27,404.347 367.73,404.347 381.068,381.095 336.005,303.044 	"/>
	<polygon points="411.266,170.794 448.738,149.16 320.023,114.671 285.757,242.551 286.063,243.08 323.535,221.446 399.306,352.686 
		457.729,251.272 	"/>
</g>
</svg>
